<svg xmlns="http://www.w3.org/2000/svg" width="1200" height="280" viewBox="0 0 1200 280" preserveAspectRatio="xMidYMid meet" role="img" aria-label="Abdel Atia">
  <defs>
    <linearGradient id="canvas" x1="0" y1="0" x2="0" y2="1">
      <stop offset="0%" stop-color="#080809"/>
      <stop offset="100%" stop-color="#030303"/>
    </linearGradient>
    <radialGradient id="light" cx="50%" cy="40%" r="68%">
      <stop offset="0%" stop-color="#e8dcc8" stop-opacity="0.06"/>
      <stop offset="100%" stop-color="#e8dcc8" stop-opacity="0"/>
    </radialGradient>
    <linearGradient id="gold" x1="0" y1="0" x2="1" y2="0">
      <stop offset="0%" stop-color="#7a6648" stop-opacity="0"/>
      <stop offset="22%" stop-color="#b8a488"/>
      <stop offset="50%" stop-color="#e2d6c2"/>
      <stop offset="78%" stop-color="#b8a488"/>
      <stop offset="100%" stop-color="#7a6648" stop-opacity="0"/>
    </linearGradient>
    <linearGradient id="flow" x1="0" y1="0" x2="1" y2="0">
      <stop offset="0%" stop-color="#a89478" stop-opacity="0"/>
      <stop offset="50%" stop-color="#d4c4aa" stop-opacity="0.35"/>
      <stop offset="100%" stop-color="#a89478" stop-opacity="0"/>
    </linearGradient>
    <linearGradient id="nameFill" x1="0" y1="0" x2="0" y2="1">
      <stop offset="0%" stop-color="#f3f0ea"/>
      <stop offset="100%" stop-color="#c8bfb2"/>
    </linearGradient>
  </defs>

  <rect width="1200" height="280" fill="url(#canvas)"/>
  <rect width="1200" height="280" fill="url(#light)"/>

  <path d="M-40 248 C 180 268, 340 208, 520 238 C 700 268, 860 208, 1040 238 C 1120 252, 1180 242, 1240 248" fill="none" stroke="url(#flow)" stroke-width="1"/>
  <path d="M-40 256 C 200 276, 360 216, 540 246 C 720 276, 880 216, 1060 246 C 1140 260, 1180 250, 1240 256" fill="none" stroke="#b8a488" stroke-width="0.5" opacity="0.12"/>

  <line x1="300" y1="32" x2="900" y2="32" stroke="url(#gold)" stroke-width="0.85"/>
  <circle cx="600" cy="32" r="2" fill="#e2d6c2" opacity="0.8"/>

  <text x="600" y="102" text-anchor="middle" font-family="Georgia, Times New Roman, serif" font-size="68" letter-spacing="19" fill="url(#nameFill)">ABDEL ATIA</text>

  <text x="600" y="134" text-anchor="middle" font-family="Helvetica, Arial, sans-serif" font-size="14" letter-spacing="7" fill="#7a746c">PhD  &#183;  DMV  &#183;  RAG Architect</text>

  <line x1="380" y1="152" x2="820" y2="152" stroke="url(#gold)" stroke-width="0.55" opacity="0.65"/>

  <text x="600" y="194" text-anchor="middle" font-family="Georgia, Times New Roman, serif" font-size="35" font-style="italic" fill="#ddd6cc">Automate the boring.</text>
  <text x="600" y="236" text-anchor="middle" font-family="Georgia, Times New Roman, serif" font-size="35" font-style="italic" fill="#a8a096">Amplify the human.</text>
</svg>
