<svg xmlns="http://www.w3.org/2000/svg" width="1200" height="320" viewBox="0 0 1200 320" preserveAspectRatio="xMidYMid meet" role="img" aria-label="Abdel Atia - vet, PhD, code, chaos">
  <defs>
    <linearGradient id="sky" x1="0" y1="0" x2="1" y2="1">
      <stop offset="0%" stop-color="#0f172a"/>
      <stop offset="55%" stop-color="#1e1b4b"/>
      <stop offset="100%" stop-color="#0f172a"/>
    </linearGradient>
    <linearGradient id="glow" x1="0" y1="0" x2="1" y2="0">
      <stop offset="0%" stop-color="#FF6B6B"/>
      <stop offset="45%" stop-color="#8B5CF6"/>
      <stop offset="100%" stop-color="#00D9FF"/>
    </linearGradient>
    <linearGradient id="frameLine" x1="0" y1="0" x2="1" y2="0">
      <stop offset="0%" stop-color="#FF6B6B" stop-opacity="0"/>
      <stop offset="20%" stop-color="#FF6B6B"/>
      <stop offset="50%" stop-color="#8B5CF6"/>
      <stop offset="80%" stop-color="#00D9FF"/>
      <stop offset="100%" stop-color="#2ea44f" stop-opacity="0"/>
    </linearGradient>
  </defs>

  <rect width="1200" height="320" rx="24" fill="url(#sky)"/>
  <rect x="1" y="1" width="1198" height="318" rx="23" fill="none" stroke="url(#frameLine)" stroke-width="2"/>
  <ellipse cx="600" cy="290" rx="420" ry="40" fill="#00D9FF" opacity="0.08"/>
  <ellipse cx="220" cy="80" rx="120" ry="80" fill="#FF6B6B" opacity="0.12"/>
  <ellipse cx="980" cy="120" rx="140" ry="90" fill="#8B5CF6" opacity="0.14"/>

  <g transform="translate(130 95)">
    <circle cx="70" cy="70" r="52" fill="#2ea44f" opacity="0.25"/>
    <circle cx="70" cy="70" r="42" fill="#34d399"/>
    <circle cx="55" cy="58" r="7" fill="#0f172a"/>
    <circle cx="85" cy="58" r="7" fill="#0f172a"/>
    <circle cx="57" cy="56" r="2.5" fill="#ffffff"/>
    <circle cx="87" cy="56" r="2.5" fill="#ffffff"/>
    <path d="M52 82 Q70 96 88 82" fill="none" stroke="#0f172a" stroke-width="3" stroke-linecap="round"/>
    <path d="M112 45 C132 45 142 65 132 82 C122 98 98 98 88 88" fill="none" stroke="#cbd5e1" stroke-width="4"/>
    <circle cx="132" cy="82" r="8" fill="#94a3b8"/>
    <text x="70" y="128" text-anchor="middle" font-family="Helvetica, Arial, sans-serif" font-size="11" fill="#cbd5e1">still alive</text>
  </g>

  <g transform="translate(930 110)">
    <rect x="0" y="20" width="120" height="72" rx="8" fill="#111827" stroke="#334155" stroke-width="2"/>
    <rect x="10" y="30" width="100" height="52" rx="4" fill="#0b1220"/>
    <text x="18" y="48" font-family="monospace" font-size="10" fill="#2ea44f">+31 merged</text>
    <text x="18" y="64" font-family="monospace" font-size="10" fill="#00D9FF">13 reviews</text>
    <text x="18" y="80" font-family="monospace" font-size="10" fill="#FF6B6B">CI: probably</text>
    <path d="M20 98 H100" stroke="#64748b" stroke-width="8" stroke-linecap="round"/>
  </g>

  <text x="600" y="122" text-anchor="middle" font-family="Helvetica, Arial, sans-serif" font-size="74" font-weight="800" letter-spacing="2" fill="url(#glow)">ABDEL ATIA</text>
  <text x="600" y="162" text-anchor="middle" font-family="Helvetica, Arial, sans-serif" font-size="22" font-weight="600" fill="#e2e8f0">I treated lions. Now I merge PRs.</text>
  <text x="600" y="194" text-anchor="middle" font-family="monospace" font-size="16" fill="#94a3b8">PhD - DMV - RAG architect - professional tab hoarder</text>

  <rect x="280" y="228" width="640" height="44" rx="22" fill="#111827" stroke="#334155"/>
  <text x="600" y="256" text-anchor="middle" font-family="monospace" font-size="15" fill="#e2e8f0">cells -&gt; python -&gt; agents -&gt; upstream repos (usually before breakfast)</text>
</svg>
